<?xml version="1.0" standalone="no"?>
<!DOCTYPE svg PUBLIC "-//W3C//DTD SVG 20010904//EN"
 "http://www.w3.org/TR/2001/REC-SVG-20010904/DTD/svg10.dtd">
<svg version="1.0" xmlns="http://www.w3.org/2000/svg"
 width="320.000000pt" height="320.000000pt" viewBox="0 0 320.000000 320.000000"
 preserveAspectRatio="xMidYMid meet">
<metadata>
Created by potrace 1.11, written by Peter Selinger 2001-2013
</metadata>
<g transform="translate(0.000000,320.000000) scale(0.100000,-0.100000)"
fill="#000000" stroke="none">
<path d="M840 2840 l0 -40 -120 0 -120 0 0 -80 0 -80 -80 0 -80 0 0 -60 0 -60
-80 0 -80 0 0 -120 0 -120 -40 0 -40 0 0 -500 0 -500 40 0 40 0 0 -80 0 -80
80 0 80 0 0 -80 0 -80 80 0 80 0 0 -60 0 -60 40 0 40 0 0 -240 0 -240 920 0
920 0 0 240 0 240 40 0 40 0 0 60 0 60 80 0 80 0 0 80 0 80 80 0 80 0 0 80 0
80 40 0 40 0 0 500 0 500 -40 0 -40 0 0 120 0 120 -80 0 -80 0 0 60 0 60 -80
0 -80 0 0 80 0 80 -120 0 -120 0 0 40 0 40 -760 0 -760 0 0 -40z m1360 -160
l0 -40 120 0 120 0 0 -80 0 -80 80 0 80 0 0 -60 0 -60 80 0 80 0 0 -120 0
-120 40 0 40 0 0 -340 0 -340 -40 0 -40 0 0 -80 0 -80 -80 0 -80 0 0 -80 0
-80 -80 0 -80 0 0 -60 0 -60 -40 0 -40 0 0 -240 0 -240 -180 0 -180 0 0 120
c0 113 -1 120 -20 120 -19 0 -20 -7 -20 -120 l0 -120 -160 0 -160 0 0 120 0
120 -40 0 -40 0 0 -120 0 -120 -160 0 -160 0 0 120 c0 113 -1 120 -20 120 -19
0 -20 -7 -20 -120 l0 -120 -180 0 -180 0 0 240 0 240 -40 0 -40 0 0 60 0 60
-80 0 -80 0 0 80 0 80 -80 0 -80 0 0 80 0 80 -40 0 -40 0 0 340 0 340 40 0 40
0 0 120 0 120 80 0 80 0 0 60 0 60 80 0 80 0 0 80 0 80 120 0 120 0 0 40 0 40
600 0 600 0 0 -40z"/>
<path d="M1080 2600 l0 -40 -120 0 -120 0 0 -80 0 -80 -80 0 -80 0 0 -60 0
-60 -80 0 -80 0 0 -120 0 -120 -40 0 -40 0 0 -260 0 -260 40 0 40 0 0 -80 0
-80 80 0 80 0 0 -80 0 -80 80 0 80 0 0 -60 0 -60 40 0 40 0 0 -240 0 -240 120
0 120 0 0 120 0 120 60 0 60 0 0 -120 0 -120 120 0 120 0 0 120 0 120 80 0 80
0 0 -120 0 -120 120 0 120 0 0 120 0 120 60 0 60 0 0 -120 0 -120 120 0 120 0
0 240 0 240 40 0 40 0 0 60 0 60 80 0 80 0 0 80 0 80 80 0 80 0 0 80 0 80 40
0 40 0 0 260 0 260 -40 0 -40 0 0 120 0 120 -80 0 -80 0 0 60 0 60 -80 0 -80
0 0 80 0 80 -120 0 -120 0 0 40 0 40 -520 0 -520 0 0 -40z m240 -940 l0 -60
60 0 60 0 0 -120 0 -120 -60 0 -60 0 0 -60 0 -60 -120 0 -120 0 0 60 0 60 -60
0 -60 0 0 120 0 120 60 0 60 0 0 60 0 60 120 0 120 0 0 -60z m800 0 l0 -60 60
0 60 0 0 -120 0 -120 -60 0 -60 0 0 -60 0 -60 -120 0 -120 0 0 60 0 60 -60 0
-60 0 0 120 0 120 60 0 60 0 0 60 0 60 120 0 120 0 0 -60z"/>
</g>
</svg>
